<svg xmlns="http://www.w3.org/2000/svg" style="display: none;">
    <symbol id="icon-tg" viewBox="0 0 24 24">
        <path d="M12 2C6.48 2 2 6.48 2 12s4.48 10 10 10 10-4.48 10-10S17.52 2 12 2zm4.64 6.8c-.15 1.58-.8 5.42-1.13 7.19-.14.75-.42 1-.68 1.03-.58.05-1.02-.38-1.58-.75-.88-.58-1.38-.94-2.23-1.5-.99-.65-.35-1.01.22-1.59.15-.15 2.71-2.48 2.76-2.69a.2.2 0 00-.05-.18c-.06-.05-.14-.03-.21-.02-.09.02-1.49.95-4.22 2.79-.4.27-.76.41-1.08.4-.36-.01-1.04-.2-1.55-.37-.63-.2-1.12-.31-1.08-.66.02-.18.27-.36.74-.55 2.92-1.27 4.86-2.11 5.83-2.51 2.78-1.16 3.35-1.36 3.73-1.36.08 0 .27.02.39.12.1.08.13.19.14.27-.01.06.01.24 0 .33z"/>
    </symbol>
    <symbol id="icon-gh" viewBox="0 0 24 24">
        <path d="M12 2A10 10 0 002 12c0 4.42 2.87 8.17 6.84 9.5.5.08.66-.23.66-.5v-1.69c-2.77.6-3.36-1.34-3.36-1.34-.46-1.16-1.11-1.47-1.11-1.47-.91-.62.07-.6.07-.6 1 .07 1.53 1.03 1.53 1.03.87 1.52 2.34 1.07 2.91.83.09-.65.35-1.09.63-1.34-2.22-.25-4.55-1.11-4.55-4.92 0-1.11.38-2 1.03-2.71-.1-.25-.45-1.29.1-2.64 0 0 .84-.27 2.75 1.02.79-.22 1.65-.33 2.5-.33.85 0 1.71.11 2.5.33 1.91-1.29 2.75-1.02 2.75-1.02.55 1.35.2 2.39.1 2.64.65.71 1.03 1.6 1.03 2.71 0 3.82-2.34 4.66-4.57 4.91.36.31.69.92.69 1.85V21c0 .27.16.59.67.5C19.14 20.16 22 16.42 22 12A10 10 0 0012 2z"/>
    </symbol>
</svg>
